<?xml version="1.0" standalone="no"?><!DOCTYPE svg PUBLIC "-//W3C//DTD SVG 1.1//EN" "http://www.w3.org/Graphics/SVG/1.1/DTD/svg11.dtd"><svg class="icon" style="" viewBox="0 0 1024 1024" version="1.1" xmlns="http://www.w3.org/2000/svg" p-id="10203" xmlns:xlink="http://www.w3.org/1999/xlink" width="200" height="200"><defs><style type="text/css"><![CDATA[

]]></style></defs><path d="M823.090201 960.0055 199.611224 960.0055c-74.816986 0-135.567605-60.665685-135.567605-135.567605L64.043618 200.956871c0-74.81187 60.750619-135.564535 135.567605-135.564535L823.090201 65.392336c74.902944 0 135.567605 60.751642 135.567605 135.564535l0 623.481024C958.656783 899.339816 897.993145 960.0055 823.090201 960.0055L823.090201 960.0055zM660.424424 146.770761 362.275977 146.770761l0 27.095102 298.148447 0L660.424424 146.770761 660.424424 146.770761zM660.424424 200.956871 362.275977 200.956871l0 27.101241 298.148447 0L660.424424 200.956871 660.424424 200.956871zM660.424424 255.153214 362.275977 255.153214l0 54.277184 298.148447 0L660.424424 255.153214 660.424424 255.153214zM660.424424 336.530616 362.275977 336.530616l0 54.190203 298.148447 0L660.424424 336.530616 660.424424 336.530616zM660.424424 553.644469 660.424424 417.818991 362.275977 417.818991l0 135.825478-135.567605 0 284.686854 324.988746 284.59578-324.988746L660.424424 553.644469 660.424424 553.644469z" p-id="10204" fill="#fb9337"></path></svg>