<?xml version="1.0" standalone="no"?><!DOCTYPE svg PUBLIC "-//W3C//DTD SVG 1.1//EN" "http://www.w3.org/Graphics/SVG/1.1/DTD/svg11.dtd"><svg class="icon" style="" viewBox="0 0 1024 1024" version="1.1" xmlns="http://www.w3.org/2000/svg" p-id="19728" xmlns:xlink="http://www.w3.org/1999/xlink" width="200" height="200"><defs><style type="text/css"><![CDATA[

]]></style></defs><path d="M818.990734 51.513131l-613.982492 0c-84.773586 0-153.495623 68.722037-153.495623 153.495623l0 613.982492c0 84.773586 68.722037 153.495623 153.495623 153.495623l613.982492 0c84.773586 0 153.495623-68.722037 153.495623-153.495623l0-613.982492C972.486357 120.235168 903.76432 51.513131 818.990734 51.513131zM670.791734 212.947548c3.989863-3.989863 9.298765-6.189967 14.944334-6.189967 5.644546 0 10.952424 2.199081 14.948427 6.19406l120.780589 120.815382c0.148379 0.128936 0.288572 0.256849 0.425695 0.393972 4.004189 4.004189 6.204293 9.316161 6.20327 14.966847 0.001023 5.647616-2.200104 10.955494-6.199177 14.944334l-0.172938 0.170892L700.682448 485.349067c-3.994979 3.994979-9.305928 6.195083-14.954567 6.195083-5.650686 0-10.959587-2.201127-14.945357-6.2002-3.996003-3.996003-6.19713-9.317184-6.188944-14.980149 0.007163-5.647616 2.209314-10.945261 6.204293-14.918751l86.73833-86.763913c-172.430843 2.777247-298.167294 43.960123-373.876452 122.483367-74.672551 77.451845-71.629244 166.23883-71.589335 167.126034l0.020466 0.449231c0.01535 0.231267 0.026606 0.474813 0.031722 0.732686l0.186241 4.160755-0.595563 0.00307c-1.990327 9.296718-10.949354 16.330911-21.668465 16.330911-9.975169 0-18.399009-6.009865-21.130207-14.37947l-0.639565 0.021489-0.298805-5.004981c-0.234337-4.350066-4.744038-107.596338 83.225327-199.392861 83.468873-87.087277 218.449854-133.027493 401.349099-136.625431l-81.759955-81.740512c-3.998049-3.998049-6.199177-9.314114-6.195083-14.966847C664.595627 222.235056 666.797778 216.931271 670.791734 212.947548zM832.293688 727.31445c0 49.586249-40.347859 89.927969-89.942295 89.927969L281.648607 817.242419c-49.594436 0-89.943319-40.34172-89.943319-89.927969L191.705288 312.178375c0-49.603646 40.348883-89.957645 89.943319-89.957645l188.09763 0c0.086981-0.004093 0.174985-0.007163 0.264012-0.007163l0.326434 0.00921c10.989263 0.185218 19.909406 9.875908 19.909406 21.679722 0 9.981309-6.378255 18.451197-14.996522 20.940896l0 0.739849-5.116521 0.016373L281.648607 265.599616c-25.676748 0-46.565455 20.895871-46.565455 46.580805l0 415.137099c0 25.656282 20.888708 46.530663 46.565455 46.530663l460.703809 0c25.675725 0 46.563409-20.873358 46.563409-46.530663L788.915825 548.786761c-0.005117-0.091074-0.007163-0.183171-0.007163-0.277315l0.007163-5.406116 0.801247 0c2.562354-8.521054 11.011776-14.826654 20.878475-14.826654 9.866699 0 18.316121 6.3056 20.878475 14.826654l0.792037 0 0.026606 5.116521L832.292665 727.31445z" p-id="19729" fill="#fb9337"></path></svg>