<?xml version="1.0" standalone="no"?><!DOCTYPE svg PUBLIC "-//W3C//DTD SVG 1.1//EN" "http://www.w3.org/Graphics/SVG/1.1/DTD/svg11.dtd"><svg class="icon" style="" viewBox="0 0 1024 1024" version="1.1" xmlns="http://www.w3.org/2000/svg" p-id="13752" xmlns:xlink="http://www.w3.org/1999/xlink" width="200" height="200"><defs><style type="text/css"><![CDATA[

]]></style></defs><path d="M937.171957 618.804515c0-14.145162-11.444657-25.605168-25.557072-25.605168L105.095082 593.199347c-14.112416 0-25.556049 11.460006-25.556049 25.605168 0 14.135952 11.443633 25.596981 25.556049 25.596981l61.026912 0-52.502771 356.12386L903.091768 1000.525356l-47.260373-356.12386L911.615908 644.401496C925.728324 644.401496 937.171957 632.94149 937.171957 618.804515zM176.088996 955.009719l28.399817-316.296783L817.901527 638.712937l28.398794 316.296783L176.088996 955.009719zM891.741255 621.648282 130.650107 621.648282l0-5.688559 761.091148 0L891.741255 621.648282zM988.289172 197.585077 823.580876 197.585077 797.80891 12.279674 216.134037 12.279674l-34.365692 185.305403L34.100144 197.585077c-18.826787 0-34.079166 15.286148-34.079166 34.146705l0 498.019591c0 18.85237 15.252379 34.137495 34.079166 34.137495l73.830519 0 0-56.899918-18.071587 0c-18.247596 0-33.039487-14.891152-33.039487-33.272801L56.819588 276.382725c0-18.373463 14.791891-33.273824 33.039487-33.273824l842.665025 0c18.255783 0 33.047674 14.900362 33.047674 33.273824l0 397.334447c0 18.381649-14.791891 33.272801-33.047674 33.272801l-12.391215 0 0 56.899918 68.157309 0c18.818601 0 34.08019-15.286148 34.08019-34.137495L1022.370385 231.731782C1022.369362 212.871225 1007.107773 197.585077 988.289172 197.585077zM227.208257 197.585077l17.182334-156.973124 516.569062 0 17.183358 156.973124L227.208257 197.585077z" p-id="13753" fill="#fb9337"></path></svg>