<?xml version="1.0" standalone="no"?><!DOCTYPE svg PUBLIC "-//W3C//DTD SVG 1.1//EN" "http://www.w3.org/Graphics/SVG/1.1/DTD/svg11.dtd"><svg class="icon" style="" viewBox="0 0 1024 1024" version="1.1" xmlns="http://www.w3.org/2000/svg" p-id="1894" xmlns:xlink="http://www.w3.org/1999/xlink" width="200" height="200"><defs><style type="text/css"><![CDATA[

]]></style></defs><path d="M307.20159 409.60152l409.598934 0c18.847726 0 34.132916-15.289922 34.132916-34.132916s-15.28519-34.133705-34.132916-34.133705L307.20159 341.3349c-18.8426 0-34.132916 15.291105-34.132916 34.133705S288.358596 409.60152 307.20159 409.60152zM307.20159 614.402565l409.598934 0c18.847726 0 34.132916-15.291105 34.132916-34.132916 0-18.843783-15.28519-34.134887-34.132916-34.134887L307.20159 546.134761c-18.8426 0-34.132916 15.291105-34.132916 34.134887C273.068674 599.11146 288.358596 614.402565 307.20159 614.402565zM307.20159 819.203609l409.598934 0c18.847726 0 34.132916-15.291105 34.132916-34.134887 0-18.841811-15.28519-34.132916-34.132916-34.132916L307.20159 750.935805c-18.8426 0-34.132916 15.291105-34.132916 34.132916C273.068674 803.912504 288.358596 819.203609 307.20159 819.203609zM853.333764 136.53425c-18.837868 0-34.132916 15.291105-34.132916 34.133705s15.295048 34.133705 34.132916 34.133705c18.847726 0 34.132916 15.289922 34.132916 34.132916l0 682.669358c0 18.772808-15.28519 34.132916-34.132916 34.132916L170.667955 955.736849c-18.773597 0-34.133705-15.360108-34.133705-34.132916L136.53425 238.934575c0-18.8426 15.360108-34.132916 34.133705-34.132916 18.8426 0 34.133705-15.291105 34.133705-34.133705s-15.291105-34.133705-34.133705-34.133705c-56.45643 0-102.400325 45.944289-102.400325 102.400325l0 682.669358c0 56.458402 45.944289 102.398353 102.400325 102.398353l682.665415 0c56.458402 0 102.400325-45.940346 102.400325-102.398353L955.733695 238.934575C955.734089 182.478145 909.791772 136.53425 853.333764 136.53425zM307.20159 204.801659l409.598934 0c18.847726 0 34.132916-15.291105 34.132916-34.133705s-15.28519-34.133705-34.132916-34.133705l-37.610676 0c-15.776098-77.89355-84.650735-136.533241-167.190368-136.533241-82.530563 0-151.413481 58.639691-167.181299 136.533241l-37.616591 0c-18.8426 0-34.132916 15.291105-34.132916 34.133705S288.358596 204.801659 307.20159 204.801659zM511.99948 68.26763c44.447906 0 81.312953 28.672596 95.509864 68.26662L416.49829 136.53425C430.695201 96.940226 467.55946 68.26763 511.99948 68.26763z" p-id="1895" fill="#fb9337"></path></svg>