<?xml version="1.0" standalone="no"?><!DOCTYPE svg PUBLIC "-//W3C//DTD SVG 1.1//EN" "http://www.w3.org/Graphics/SVG/1.1/DTD/svg11.dtd"><svg class="icon" style="" viewBox="0 0 1024 1024" version="1.1" xmlns="http://www.w3.org/2000/svg" p-id="2417" xmlns:xlink="http://www.w3.org/1999/xlink" width="200" height="200"><defs><style type="text/css"><![CDATA[

]]></style></defs><path d="M947.203729 0 76.801342 0c-42.421463 0-76.801346 34.379884-76.801346 76.801346l0 870.402387c0 42.416383 34.379884 76.796267 76.801346 76.796267l870.402387 0c42.393018 0 76.796267-34.379884 76.796267-76.796267L1023.999996 76.801346C1023.999996 34.379883 989.596748 0 947.203729 0zM733.615287 564.554197 561.65187 564.554197l0 175.22434c0 29.036439-23.107857 52.538452-51.584555 52.538452-28.519364 0-51.591666-23.512171-51.591666-52.538452L458.475648 564.554197 286.467533 564.554197c-28.465524 0-51.573381-23.493885-51.573381-52.54861 0-29.0019 23.107857-52.538452 51.573381-52.538452l171.973576 0L458.441109 284.241779c0-29.0019 23.107857-52.556737 51.573381-52.556737 28.492952 0 51.592682 23.566012 51.592682 52.556737l0 175.22434 171.973576 0c28.511237 0 51.576428 23.547726 51.576428 52.538452C785.198827 541.059296 762.090969 564.554197 733.615287 564.554197z" p-id="2418" fill="#fb9337"></path></svg>