<?xml version="1.0" standalone="no"?><!DOCTYPE svg PUBLIC "-//W3C//DTD SVG 1.1//EN" "http://www.w3.org/Graphics/SVG/1.1/DTD/svg11.dtd"><svg class="icon" style="" viewBox="0 0 1024 1024" version="1.1" xmlns="http://www.w3.org/2000/svg" p-id="8293" xmlns:xlink="http://www.w3.org/1999/xlink" width="200" height="200"><defs><style type="text/css"><![CDATA[

]]></style></defs><path d="M206.673181 494.154737c-2.718549 0-4.846066 0.399727-6.525525 1.0552 2.286602-0.671582 4.702083-1.0552 7.197108-1.0552L206.673181 494.154737 206.673181 494.154737zM954.245045 791.591219c0.06444-1.375385 0.255745-2.734659 0.54371-4.046611C954.46857 788.152757 954.308478 789.431482 954.245045 791.591219L954.245045 791.591219zM1004.111295 242.123064c0.01611-0.06444 0.01611-0.127873 0.01611-0.176202l0-0.639363C1004.126398 241.579354 1004.126398 241.851209 1004.111295 242.123064L1004.111295 242.123064zM954.212825 242.042515c0 0.04833 0 0.111763 0.01611 0.160092-0.01611-0.287965-0.01611-0.59204-0.01611-0.895108L954.212825 242.042515 954.212825 242.042515zM984.311194 989.374743c-7.020905-52.185071-22.373661-102.594024-45.627326-149.789047-4.541991-9.227965-9.371947-18.311947-14.473758-27.187507-0.01611-0.03222-0.03222-0.06444-0.04833-0.095653-22.134026-37.439458-49.30643-72.191581-80.956385-103.218283l-0.01611-0.01611c-6.876923-6.74905-13.977371-13.321899-21.270131-19.703441-52.057199-45.563893-112.142173-79.325255-176.209319-99.875475 11.595116-6.412756 22.821718-13.593753 33.58516-21.558096 12.266699-9.019543 23.957468-19.063072 34.944434-30.034936 57.766152-57.68661 89.59231-134.404072 89.59231-215.983709 0-81.595748-31.826158-158.313209-89.59231-215.999819-56.727062-56.646513-131.813395-88.296468-211.841445-89.432218-1.279732-0.01611-2.543354-0.03222-3.822079-0.03222-1.263622 0-2.543354 0.01611-3.805969 0.03222-80.028051 1.135749-155.1315 32.785705-211.841445 89.432218-57.766152 57.68661-89.59231 134.404072-89.59231 215.999819s31.826158 158.298106 89.59231 215.983709c10.986967 10.970857 22.661626 21.014386 34.928324 30.034936 10.779551 7.964343 22.006153 15.16145 33.60127 21.558096-64.083256 20.551226-124.169237 54.311581-176.209319 99.875475-7.30887 6.381543-14.393208 12.954391-21.270131 19.703441-31.682175 31.057916-58.869682 65.843265-81.019818 103.330046-5.117921 8.87556-9.931767 17.959542-14.489868 27.187507-23.237555 47.195023-38.591318 97.604982-45.612223 149.789047-2.255389 16.72814 9.49982 32.114122 26.22796 34.352395 1.391495 0.176202 2.766879 0.271855 4.126154 0.271855 1.231402 0 2.446694-0.06444 3.661987-0.223525 12.106606-2.622897 21.878281-12.490224 23.765155-25.428505 14.105243-96.613215 60.212847-184.414303 126.504169-251.280548 78.668776-79.372578 185.725248-129.254938 301.433756-129.446243l0.671582 0c115.452762 0.383618 222.253489 50.233757 300.778283 129.446243 66.274205 66.866245 112.397918 154.651223 126.488059 251.280548 1.902985 12.906061 11.626329 22.758285 23.701723 25.412395 0.03222 0 0.03222 0.01611 0.06444 0.01611 1.215292 0.160092 2.430584 0.223525 3.678097 0.223525 1.359275 0 2.734659-0.095653 4.110044-0.271855C974.812381 1021.488866 986.566583 1006.103891 984.311194 989.374743L984.311194 989.374743zM497.919425 566.266775c-0.60815 0-1.231402 0-1.839552 0-114.17303-0.847785-215.967599-80.044161-243.779366-186.301178-0.304075-1.151859-0.60815-2.318822-0.895108-3.502901-4.349679-17.559815-6.669508-35.808329-6.669508-54.567326 0-18.743894 2.318822-37.199823 6.669508-55.079823 0.271855-1.199182 0.59204-2.383262 0.895108-3.566334C280.272366 154.338086 383.010373 67.78451 497.919425 67.78451l1.327055 0c114.909052 0 217.647059 86.553576 245.618917 195.46571 0.304075 1.183072 0.60815 2.367152 0.880004 3.566334 4.365789 17.88 6.684611 36.335929 6.684611 55.079823 0 18.760004-2.318822 37.007511-6.684611 54.567326-0.271855 1.183072-0.57593 2.351042-0.880004 3.502901-27.827876 106.257017-129.622445 185.453393-243.795476 186.301178C500.030831 566.266775 498.990735 566.266775 497.919425 566.266775L497.919425 566.266775z" p-id="8294" fill="#b9c2cf"></path></svg>