<?xml version="1.0" standalone="no"?><!DOCTYPE svg PUBLIC "-//W3C//DTD SVG 1.1//EN" "http://www.w3.org/Graphics/SVG/1.1/DTD/svg11.dtd"><svg class="icon" style="" viewBox="0 0 1024 1024" version="1.1" xmlns="http://www.w3.org/2000/svg" p-id="17712" xmlns:xlink="http://www.w3.org/1999/xlink" width="200" height="200"><defs><style type="text/css"><![CDATA[

]]></style></defs><path d="M320 192l640 0c35.328 0 64-28.672 64-64 0-35.328-28.672-64-64-64L320 64 320 192z" p-id="17713" fill="#586d8e"></path><path d="M64 192l128 0L192 64 64 64C28.672 64 0 92.672 0 128 0 163.328 28.672 192 64 192z" p-id="17714" fill="#586d8e"></path><path d="M320 576l640 0c35.328 0 64-28.672 64-64 0-35.328-28.672-64-64-64L320 448 320 576z" p-id="17715" fill="#586d8e"></path><path d="M64 576l128 0L192 448 64 448C28.672 448 0 476.672 0 512 0 547.328 28.672 576 64 576z" p-id="17716" fill="#586d8e"></path><path d="M320 960l640 0c35.328 0 64-28.672 64-64 0-35.328-28.672-64-64-64L320 832 320 960z" p-id="17717" fill="#586d8e"></path><path d="M64 960l128 0 0-128L64 832c-35.328 0-64 28.672-64 64C0 931.328 28.672 960 64 960z" p-id="17718" fill="#586d8e"></path></svg>