<?xml version="1.0" standalone="no"?><!DOCTYPE svg PUBLIC "-//W3C//DTD SVG 1.1//EN" "http://www.w3.org/Graphics/SVG/1.1/DTD/svg11.dtd"><svg t="1482468993757" class="icon" style="" viewBox="0 0 1024 1024" version="1.1" xmlns="http://www.w3.org/2000/svg" p-id="1005" xmlns:xlink="http://www.w3.org/1999/xlink" width="14" height="14"><defs><style type="text/css"></style></defs><path d="M804.53376 621.740032q0 14.856192-10.856448 25.71264l-255.983616 255.983616q-10.856448 10.856448-25.71264 10.856448t-25.71264-10.856448l-255.983616-255.983616q-10.856448-10.856448-10.856448-25.71264t10.856448-25.71264 25.71264-10.856448l511.967232 0q14.856192 0 25.71264 10.856448t10.856448 25.71264zm0-219.414528q0 14.856192-10.856448 25.71264t-25.71264 10.856448l-511.967232 0q-14.856192 0-25.71264-10.856448t-10.856448-25.71264 10.856448-25.71264l255.983616-255.983616q10.856448-10.856448 25.71264-10.856448t25.71264 10.856448l255.983616 255.983616q10.856448 10.856448 10.856448 25.71264z" p-id="1006" fill="#8a8a8a"></path></svg>